<svg width="136" height="215" viewBox="0 0 136 215" fill="none" xmlns="http://www.w3.org/2000/svg">
<g opacity="0.7">
<path opacity="0.7" fill-rule="evenodd" clip-rule="evenodd" d="M12.4911 61.8618C19.8165 61.4819 28.8766 65.7579 29.6579 73.7208C30.2256 79.5062 30.0501 85.2755 30.9285 91.0529C31.6309 95.6696 33.1167 100.102 35.1434 104.307C37.0922 108.352 41.1343 111.794 42.1854 116.115C42.8556 118.868 42.4806 122.741 41.5566 125.433C40.433 128.707 41.0302 128.449 43.2693 131.196C47.657 136.58 51.6083 142.1 54.4023 148.53C58.4267 157.792 61.0656 168.617 59.5717 178.755C59.3818 180.042 59.1564 184.662 57.3836 184.985C55.4036 185.346 56.3297 182.704 56.4354 181.85C57.1088 176.405 57.7076 171.645 56.8947 166.114C53.7595 144.773 38.4503 130.713 28.4817 112.601C27.9339 111.667 26.777 109.443 25.9727 107.976C24.7026 105.659 23.4261 101.252 21.7068 99.5335C18.4691 96.2979 21.4461 102.803 22.0765 104.045C22.8744 105.616 23.7517 107.286 24.5695 108.662C28.3095 115.043 32.4841 122.008 36.3464 128.586C19.641 132.392 7.87594 112.308 3.39281 99.1048C-0.301011 88.2267 -4.72029 62.7928 12.4911 61.8618Z" fill="#69A1AC"/>
<path opacity="0.7" fill-rule="evenodd" clip-rule="evenodd" d="M110.676 41.6601C98.4302 42.6319 90.5682 50.7128 86.9088 62.0153C84.9363 68.106 84.7099 74.3631 83.6136 80.6228C81.9652 90.0398 78.4174 97.1769 71.4837 103.886C69.3363 105.964 67.7534 108.097 66.6287 110.38C64.3955 112.659 62.4514 115.238 61.023 118.391C59.1987 122.417 58.6825 127.248 60.7885 131.263C61.3552 132.342 62.768 134.508 64.2323 135.492C58.7501 147.168 55.7356 159.956 56.0752 172.728C56.2807 180.437 56.6569 188.15 57.0963 195.85C57.2144 197.917 57.8878 201.331 58.8987 197.864C59.8243 194.692 58.6637 189.713 58.5564 186.401C58.0338 170.26 57.5873 155.584 64.2313 140.504C64.9283 138.923 65.6672 137.355 66.4361 135.8C66.4817 135.774 66.5235 135.742 66.5659 135.711C66.5949 135.734 66.6217 135.758 66.6512 135.781C66.7001 135.693 66.7677 135.589 66.846 135.472C67.0665 135.244 67.2592 134.956 67.4427 134.636C68.0319 133.819 68.6988 132.859 68.7026 132.334C68.7026 132.33 68.7005 132.323 68.7005 132.319C72.8133 125.605 77.5245 119.261 82.3366 113.04C82.3006 113.086 87.5564 105.93 86.744 109.887C86.3523 111.794 82.4863 115.426 80.9248 117.446C77.4709 121.94 73.4148 127.635 70.0446 133.141C69.5912 133.402 68.9505 134.681 68.4869 135.635C68.2309 136.118 67.9922 136.604 67.7577 137.029C79.7003 140.974 88.9902 133.026 95.325 123.782C95.3325 123.771 95.3395 123.76 95.3465 123.749C97.2744 121.195 99.249 118.658 101.716 116.639C105.832 113.269 110.24 112.675 115.093 111.017C128.327 106.495 133.953 89.3439 135.74 76.6178C137.757 62.2605 127.894 40.2446 110.676 41.6601Z" fill="#89C5CC"/>
<path opacity="0.7" fill-rule="evenodd" clip-rule="evenodd" d="M86.4863 1.45413C73.9174 14.5349 67.8449 32.6788 63.0371 49.7362C57.667 68.7869 54.1197 88.1317 53.9834 107.939C53.8944 120.953 53.5402 134.047 54.3 147.046C54.5694 151.662 55.0297 156.287 55.7611 160.853C55.8217 161.228 57.4589 171.425 59.0251 169.049C59.9159 167.698 57.3467 158.472 57.153 156.935C56.0611 148.279 55.8073 139.56 55.8604 130.842C55.9478 116.488 55.525 102.208 56.9797 87.9074C57.1965 85.7719 57.3682 83.5295 57.8752 81.4406C58.414 79.2197 57.7277 80.1893 59.4818 79.3098C61.1865 78.4556 63.2926 78.5774 65.0611 77.5053C72.0753 73.2518 75.6634 62.326 78.4563 55.1573C81.6506 46.9599 83.5919 38.2179 85.1427 29.5908C86.2813 23.2527 87.0953 16.9527 87.5557 10.5325C87.7011 8.50909 87.7097 6.39336 88.1073 4.40372C88.2146 3.86714 88.7517 2.91793 88.7324 2.44252C88.6911 1.43643 88.0842 0.845114 88.0343 0C87.5079 0.473264 86.9917 0.958328 86.4863 1.45413Z" fill="#89C5CC"/>
<path opacity="0.7" fill-rule="evenodd" clip-rule="evenodd" d="M17.9526 175.74C17.9526 197.374 35.4897 214.911 57.123 214.911C78.7563 214.911 96.2934 197.374 96.2934 175.74" fill="#89C5CC"/>
<path opacity="0.7" fill-rule="evenodd" clip-rule="evenodd" d="M83.9667 141.445C93.6611 140.73 104.487 148.551 109.163 156.69C112.933 163.252 112.298 171.869 109.97 178.841C108.411 183.508 105.008 190.162 99.3327 190.227C92.2327 190.308 91.8904 181.533 91.753 176.403C91.5706 169.583 90.7088 163.642 85.3344 158.993C84.6712 158.419 83.9747 157.882 83.2788 157.345C82.6606 156.868 82.043 156.392 81.448 155.889C81.353 155.809 81.257 155.729 81.1614 155.649C79.2609 154.051 77.2653 152.374 77.0223 149.741C76.6703 145.926 78.8236 145.239 82.1117 145.948C82.218 145.971 82.5061 146.08 82.8978 146.228C84.5773 146.865 88.1606 148.223 87.4829 146.6C87.2275 145.988 86.2954 145.503 85.1187 145.14C82.0742 144.809 78.4426 144.424 77.3984 144.654C66.1329 147.125 61.7463 162.731 60.5814 172.646C60.4559 173.716 60.3545 174.789 60.2654 175.865H58.1958C58.3396 173.268 58.529 170.676 58.9631 168.108C60.6238 158.287 65.8152 143.863 77.2015 142.268C77.6216 142.209 79.167 142.199 81.0386 142.309C81.9255 141.813 82.9193 141.513 83.9667 141.445Z" fill="#69A1AC"/>
</g>
</svg>
