<svg width="132" height="100" viewBox="0 0 132 100" fill="none" xmlns="http://www.w3.org/2000/svg">
<g clip-path="url(#clip0_404_7402)">
<path d="M132 40.8284C132 73.508 102.325 100 65.7191 100C29.1132 100 14 91.8512 14 59.1716C14 26.492 32.5787 -0.000126404 80.2809 4.52341e-10C116.887 4.52341e-10 132 8.14885 132 40.8284Z" fill="#E6A676"/>
<path d="M109.025 25.6631H52.2686V50.0111H109.025V25.6631Z" fill="white" stroke="#263238" stroke-width="0.2" stroke-linecap="round" stroke-linejoin="round"/>
<path d="M110.569 24.9771H50.7261V26.0053H110.569V24.9771Z" fill="white" stroke="#263238" stroke-width="0.2" stroke-linecap="round" stroke-linejoin="round"/>
<path d="M109.025 49.1528H52.2686V50.0111H109.025V49.1528Z" fill="#263238" stroke="#263238" stroke-width="0.2" stroke-linecap="round" stroke-linejoin="round"/>
<path d="M64.6785 34.5871C65.041 32.4664 63.6156 30.4533 61.4949 30.0908C59.3742 29.7283 57.3612 31.1536 56.9987 33.2744C56.6362 35.3951 58.0615 37.4081 60.1822 37.7706C62.3029 38.1331 64.316 36.7078 64.6785 34.5871Z" stroke="#263238" stroke-width="0.2" stroke-miterlimit="10"/>
<path d="M60.7671 28.9026V39.9527" stroke="#263238" stroke-width="0.2" stroke-miterlimit="10"/>
<path d="M55.667 34.0029H65.7254" stroke="#263238" stroke-width="0.2" stroke-miterlimit="10"/>
<path d="M76.688 34.9495H86.7464" stroke="#263238" stroke-width="0.2" stroke-miterlimit="10"/>
<path d="M81.6455 29.7092V40.7593" stroke="#263238" stroke-width="0.2" stroke-miterlimit="10"/>
<path d="M77.9629 31.1248L79.4902 32.3121C80.1511 32.8266 80.9624 33.1103 81.8 33.12C82.6375 33.1297 83.4551 32.8649 84.1279 32.3659L85.6143 31.2667" stroke="#263238" stroke-width="0.2" stroke-miterlimit="10"/>
<path d="M85.6084 38.2535L84.0811 37.0661C83.4195 36.5522 82.608 36.2688 81.7703 36.259C80.9325 36.2493 80.1146 36.5139 79.4413 37.0123L77.957 38.1115" stroke="#263238" stroke-width="0.2" stroke-miterlimit="10"/>
<path d="M99.6909 29.6018V38.8794" stroke="#263238" stroke-width="0.2" stroke-miterlimit="10"/>
<path d="M94.707 34.3081H104.124" stroke="#263238" stroke-width="0.2" stroke-miterlimit="10"/>
<path d="M95.3115 33.9382V34.6911" stroke="#263238" stroke-width="0.2" stroke-miterlimit="10"/>
<path d="M95.8579 33.9382V34.6911" stroke="#263238" stroke-width="0.2" stroke-miterlimit="10"/>
<path d="M96.4062 33.9382V34.6911" stroke="#263238" stroke-width="0.2" stroke-miterlimit="10"/>
<path d="M96.9531 33.9382V34.6911" stroke="#263238" stroke-width="0.2" stroke-miterlimit="10"/>
<path d="M97.5015 33.9382V34.6911" stroke="#263238" stroke-width="0.2" stroke-miterlimit="10"/>
<path d="M98.0479 33.9382V34.6911" stroke="#263238" stroke-width="0.2" stroke-miterlimit="10"/>
<path d="M98.5942 33.9382V34.6911" stroke="#263238" stroke-width="0.2" stroke-miterlimit="10"/>
<path d="M99.1426 33.9382V34.6911" stroke="#263238" stroke-width="0.2" stroke-miterlimit="10"/>
<path d="M100.235 33.9382V34.6911" stroke="#263238" stroke-width="0.2" stroke-miterlimit="10"/>
<path d="M100.784 33.9382V34.6911" stroke="#263238" stroke-width="0.2" stroke-miterlimit="10"/>
<path d="M101.331 33.9382V34.6911" stroke="#263238" stroke-width="0.2" stroke-miterlimit="10"/>
<path d="M101.879 33.9382V34.6911" stroke="#263238" stroke-width="0.2" stroke-miterlimit="10"/>
<path d="M102.425 33.9382V34.6911" stroke="#263238" stroke-width="0.2" stroke-miterlimit="10"/>
<path d="M102.971 33.9382V34.6911" stroke="#263238" stroke-width="0.2" stroke-miterlimit="10"/>
<path d="M103.52 33.9382V34.6911" stroke="#263238" stroke-width="0.2" stroke-miterlimit="10"/>
<path d="M99.3149 38.4189H100.068" stroke="#263238" stroke-width="0.2" stroke-miterlimit="10"/>
<path d="M99.3149 37.8706H100.068" stroke="#263238" stroke-width="0.2" stroke-miterlimit="10"/>
<path d="M99.3149 37.3242H100.068" stroke="#263238" stroke-width="0.2" stroke-miterlimit="10"/>
<path d="M99.3149 36.7756H100.068" stroke="#263238" stroke-width="0.2" stroke-miterlimit="10"/>
<path d="M99.3149 36.2292H100.068" stroke="#263238" stroke-width="0.2" stroke-miterlimit="10"/>
<path d="M99.3149 35.6829H100.068" stroke="#263238" stroke-width="0.2" stroke-miterlimit="10"/>
<path d="M99.3149 35.1343H100.068" stroke="#263238" stroke-width="0.2" stroke-miterlimit="10"/>
<path d="M99.3149 33.4929H100.068" stroke="#263238" stroke-width="0.2" stroke-miterlimit="10"/>
<path d="M99.3149 32.9465H100.068" stroke="#263238" stroke-width="0.2" stroke-miterlimit="10"/>
<path d="M99.3149 32.3982H100.068" stroke="#263238" stroke-width="0.2" stroke-miterlimit="10"/>
<path d="M99.3149 31.8518H100.068" stroke="#263238" stroke-width="0.2" stroke-miterlimit="10"/>
<path d="M99.3149 31.3054H100.068" stroke="#263238" stroke-width="0.2" stroke-miterlimit="10"/>
<path d="M99.3149 30.7568H100.068" stroke="#263238" stroke-width="0.2" stroke-miterlimit="10"/>
<path d="M99.3149 30.2104H100.068" stroke="#263238" stroke-width="0.2" stroke-miterlimit="10"/>
<path d="M56.3491 42.2048H64.9405" stroke="#263238" stroke-width="0.2" stroke-miterlimit="10"/>
<path d="M56.3491 43.2632H64.9405" stroke="#263238" stroke-width="0.2" stroke-miterlimit="10"/>
<path d="M56.3491 44.3215H64.9405" stroke="#263238" stroke-width="0.2" stroke-miterlimit="10"/>
<path d="M56.3491 45.3821H64.9405" stroke="#263238" stroke-width="0.2" stroke-miterlimit="10"/>
<path d="M78.1201 42.2048H86.7115" stroke="#263238" stroke-width="0.2" stroke-miterlimit="10"/>
<path d="M78.1201 43.2632H86.7115" stroke="#263238" stroke-width="0.2" stroke-miterlimit="10"/>
<path d="M78.1201 44.3215H86.7115" stroke="#263238" stroke-width="0.2" stroke-miterlimit="10"/>
<path d="M78.1201 45.3821H86.7115" stroke="#263238" stroke-width="0.2" stroke-miterlimit="10"/>
<path d="M95.8901 42.2048H104.482" stroke="#263238" stroke-width="0.2" stroke-miterlimit="10"/>
<path d="M95.8901 43.2632H104.482" stroke="#263238" stroke-width="0.2" stroke-miterlimit="10"/>
<path d="M95.8901 44.3215H104.482" stroke="#263238" stroke-width="0.2" stroke-miterlimit="10"/>
<path d="M95.8901 45.3821H104.482" stroke="#263238" stroke-width="0.2" stroke-miterlimit="10"/>
<path d="M67.0591 36.5562H75.6483" stroke="#263238" stroke-width="0.2" stroke-miterlimit="10"/>
<path d="M67.0591 37.6145H75.6483" stroke="#263238" stroke-width="0.2" stroke-miterlimit="10"/>
<path d="M67.0591 38.6729H75.6483" stroke="#263238" stroke-width="0.2" stroke-miterlimit="10"/>
<path d="M67.0591 39.7334H75.6483" stroke="#263238" stroke-width="0.2" stroke-miterlimit="10"/>
<path d="M86.3589 28.6702H94.9481" stroke="#263238" stroke-width="0.2" stroke-miterlimit="10"/>
<path d="M86.3589 29.7307H94.9481" stroke="#263238" stroke-width="0.2" stroke-miterlimit="10"/>
<path d="M86.3589 30.7891H94.9481" stroke="#263238" stroke-width="0.2" stroke-miterlimit="10"/>
<path d="M86.3589 31.8477H94.9481" stroke="#263238" stroke-width="0.2" stroke-miterlimit="10"/>
<path d="M36.899 49.9487H25.8188V59.2564H36.899V49.9487Z" fill="#263238" stroke="#263238" stroke-width="0.2" stroke-linecap="round" stroke-linejoin="round"/>
<path d="M43.6232 60.4395H32.543V61.031H43.6232V60.4395Z" fill="#263238" stroke="#263238" stroke-width="0.2" stroke-linecap="round" stroke-linejoin="round"/>
<path d="M32.1 56.6707H29.9575V60.9556H32.1V56.6707Z" fill="#707070" stroke="#263238" stroke-width="0.2" stroke-linecap="round" stroke-linejoin="round"/>
<path d="M54.1138 61.8765H24.5645V81.5351H54.1138V61.8765Z" fill="#707070" stroke="#263238" stroke-width="0.2" stroke-linecap="round" stroke-linejoin="round"/>
<path d="M25.0487 62.0183H24.0527V81.9997H25.0487V62.0183Z" fill="#707070" stroke="#263238" stroke-width="0.2" stroke-linecap="round" stroke-linejoin="round"/>
<path d="M54.5165 62.0183H53.5205V81.9997H54.5165V62.0183Z" fill="#707070" stroke="#263238" stroke-width="0.2" stroke-linecap="round" stroke-linejoin="round"/>
<path d="M55.9166 60.8267H23.2202V62.7045H55.9166V60.8267Z" fill="#707070" stroke="#263238" stroke-width="0.2" stroke-linecap="round" stroke-linejoin="round"/>
<path d="M70.6872 42.6481C70.6872 42.6481 69.4998 43.3859 69.1147 44.3496C68.7297 45.3133 67.125 50.293 66.7077 50.9362C66.2904 51.5794 66.2904 52.5732 66.7722 53.1195C67.2541 53.6659 68.0629 54.0165 68.7297 53.3755C69.3965 52.7345 69.5901 51.4503 70.2355 49.9338C70.8808 48.4173 71.425 44.1496 71.7412 43.2827C71.9337 42.7652 72.0629 42.2264 72.1262 41.678L70.6872 42.6481Z" fill="white" stroke="#263238" stroke-width="0.2" stroke-linecap="round" stroke-linejoin="round"/>
<path d="M80.3828 55.1715C80.3828 55.1715 80.5742 57.7249 80.4774 59.0241C80.3806 60.3234 79.5159 68.5189 79.5159 68.5189L78.264 79.5755H76.3388L74.9406 63.2703L73.0648 79.5282H71.0901C71.0901 79.5282 69.935 69.289 69.5973 66.8368C69.3951 65.3031 69.3469 63.7531 69.4532 62.2098C69.4532 62.0657 69.0229 58.7918 69.0229 57.8776C69.0295 57.2546 69.0726 56.6326 69.152 56.0147L69.0724 55.662C69.0724 55.662 72.6346 56.6257 75.0954 56.047C77.5563 55.4684 79.9569 54.7004 79.9569 54.7004L80.3828 55.1715Z" fill="#263238" stroke="#263238" stroke-width="0.2" stroke-linecap="round" stroke-linejoin="round"/>
<path d="M78.2634 79.5755L78.8399 81.5502C78.8599 81.5814 78.8734 81.6164 78.8795 81.653C78.8856 81.6896 78.8842 81.7271 78.8753 81.7631C78.8664 81.7991 78.8503 81.833 78.828 81.8626C78.8056 81.8922 78.7774 81.9169 78.7452 81.9353C78.5043 82.0794 75.8068 81.9353 75.8068 81.9353C75.7308 81.896 75.6703 81.832 75.6355 81.7538C75.6007 81.6756 75.5936 81.5879 75.6154 81.5051C75.6627 81.1673 76.3382 79.5691 76.3382 79.5691L78.2634 79.5755Z" stroke="#263238" stroke-width="0.2" stroke-linecap="round" stroke-linejoin="round"/>
<path d="M73.0646 79.5283L73.2389 81.3288C73.2494 81.4408 73.2196 81.5529 73.155 81.645C73.1118 81.705 73.055 81.754 72.9891 81.7876C72.9233 81.8213 72.8503 81.8388 72.7764 81.8386H69.0443C68.6657 81.8386 67.9343 81.8257 68.0053 81.4535C68.0526 81.2126 71.0856 79.5348 71.0856 79.5348L73.0646 79.5283Z" stroke="#263238" stroke-width="0.2" stroke-linecap="round" stroke-linejoin="round"/>
<path d="M74.94 63.2704L74.4603 61.2398L72.7266 60.0352" stroke="#6B6B6B" stroke-width="0.2" stroke-linecap="round" stroke-linejoin="round"/>
<path d="M70.0139 45.1197V48.8733C70.0139 49.0884 68.8588 54.0359 68.762 54.5221C68.6652 55.0082 68.762 55.4535 69.147 55.9977C69.5321 56.5419 70.9776 57.0904 74.1225 57.3464C77.2673 57.6024 79.612 56.4473 80.253 55.7094C80.8941 54.9716 80.1562 53.5584 79.9325 51.5686C79.7088 49.5789 79.6421 43.2805 78.7451 42.8718C77.8481 42.4631 74.9571 41.0757 74.9571 41.0757C74.9571 41.0757 73.3201 41.0757 72.2295 41.5575C71.5131 41.9009 70.8781 42.3929 70.3667 43.0009" fill="white"/>
<path d="M70.0139 45.1197V48.8733C70.0139 49.0884 68.8588 54.0359 68.762 54.5221C68.6652 55.0082 68.762 55.4535 69.147 55.9977C69.5321 56.5419 70.9776 57.0904 74.1225 57.3464C77.2673 57.6024 79.612 56.4473 80.253 55.7094C80.8941 54.9716 80.1562 53.5584 79.9325 51.5686C79.7088 49.5789 79.6421 43.2805 78.7451 42.8718C77.8481 42.4631 74.9571 41.0757 74.9571 41.0757C74.9571 41.0757 73.3201 41.0757 72.2295 41.5575C71.5131 41.9009 70.8781 42.3929 70.3667 43.0009" stroke="#263238" stroke-width="0.2" stroke-linecap="round" stroke-linejoin="round"/>
<path d="M74.7641 40.4324C74.9433 40.4174 75.1226 40.459 75.2769 40.5512C75.4313 40.6434 75.5528 40.7816 75.6246 40.9465C75.8504 41.5251 75.1427 45.0228 75.1427 45.0228C75.1427 45.0228 73.5703 43.8999 73.1853 43.8999C72.8002 43.8999 71.0342 45.0228 71.0342 45.0228C71.0342 45.0228 71.6128 42.6157 72.1269 41.6843C72.641 40.7529 74.0521 40.2409 74.6308 40.3936L74.7641 40.4324Z" fill="white" stroke="#263238" stroke-width="0.2" stroke-linecap="round" stroke-linejoin="round"/>
<path d="M74.8929 40.1121C74.8929 40.1121 75.022 40.4326 74.4434 41.9749C73.8647 43.5172 73.5829 44.8315 73.2237 44.4766C72.8645 44.1217 72.4536 42.2631 72.4536 42.2631C72.4536 42.2631 74.3143 40.9144 74.8929 40.1121Z" fill="white" stroke="#263238" stroke-width="0.2" stroke-linecap="round" stroke-linejoin="round"/>
<path d="M69.7305 37.6253C69.8934 38.5169 70.103 39.3994 70.3586 40.269C70.6705 41.2069 71.0727 42.5943 72.1461 42.9062C73.2195 43.2181 73.5336 42.4158 73.981 42.0458C74.4284 41.6758 75.1426 40.4798 75.1426 39.8947C75.1426 39.3096 75.0974 38.0168 74.8737 37.5694C74.65 37.122 74.2477 36.6745 73.0861 36.4508C71.9246 36.2271 70.849 36.4164 69.7305 37.6253Z" fill="white" stroke="#263238" stroke-width="0.2" stroke-linecap="round" stroke-linejoin="round"/>
<path d="M74.7858 38.8321C74.7858 38.8321 74.1147 39.101 73.9362 38.6987C73.7576 38.2965 73.4436 37.7135 73.4436 37.7135C73.4436 37.7135 72.0561 38.2965 71.2086 38.333C70.3611 38.3696 69.4189 37.8426 69.2855 37.2575C69.1522 36.6724 69.6426 35.3796 70.7612 34.6762C71.8797 33.9728 74.2029 33.6459 74.9192 34.7644C75.4622 35.6174 75.7282 36.6174 75.6807 37.6275C75.6807 38.3868 75.6355 38.9181 75.6355 38.9181C75.5082 38.844 75.3665 38.798 75.22 38.7831C75.0734 38.7683 74.9254 38.785 74.7858 38.8321Z" fill="#263238" stroke="#263238" stroke-width="0.2" stroke-linecap="round" stroke-linejoin="round"/>
<path d="M74.5166 39.1461C74.5166 39.1461 74.9189 38.1158 75.3211 38.2513C75.7234 38.3868 75.7685 39.1913 75.5362 39.6818C75.3039 40.1722 74.7317 40.3529 74.5983 40.2647" fill="white"/>
<path d="M74.5166 39.1461C74.5166 39.1461 74.9189 38.1158 75.3211 38.2513C75.7234 38.3868 75.7685 39.1913 75.5362 39.6818C75.3039 40.1722 74.7317 40.3529 74.5983 40.2647" stroke="#263238" stroke-width="0.2" stroke-linecap="round" stroke-linejoin="round"/>
<path d="M71.5095 39.6903C71.5095 39.6903 73.1271 39.5763 73.4691 39.6214C73.8111 39.6666 73.7638 40.0516 73.6734 40.4819C73.5831 40.9121 73.0582 41.1659 72.443 41.0519C71.8278 40.9379 71.6902 40.4066 71.5826 40.3227C71.475 40.2388 71.4234 40.1398 71.2879 40.2087C71.1524 40.2775 71.1739 40.755 71.0147 40.9594C70.8555 41.1637 70.421 41.3251 69.9392 41.0734C69.4573 40.8217 69.4832 40.0947 69.4832 39.843C69.4832 39.5913 69.7327 39.615 69.8467 39.6279C69.9607 39.6408 71.5095 39.6903 71.5095 39.6903Z" stroke="#263238" stroke-width="0.2" stroke-linecap="round" stroke-linejoin="round"/>
<path d="M73.6968 39.7141L74.6992 38.688" stroke="#263238" stroke-width="0.2" stroke-linecap="round" stroke-linejoin="round"/>
<path d="M69.5947 39.6216L69.9819 39.144" stroke="#263238" stroke-width="0.2" stroke-linecap="round" stroke-linejoin="round"/>
<path d="M71.2574 40.4648C71.2574 40.4648 71.167 40.738 71.1197 40.966C71.0724 41.1941 71.2574 41.6501 71.5306 41.6114C71.8037 41.5726 71.8726 41.4285 71.8726 41.4285" stroke="#263238" stroke-width="0.2" stroke-linecap="round" stroke-linejoin="round"/>
<path d="M73.131 39.372C72.8235 39.2767 72.4922 39.2927 72.1953 39.4172" stroke="#263238" stroke-width="0.2" stroke-linecap="round" stroke-linejoin="round"/>
<path d="M71.0295 39.4624C70.9276 39.3786 70.8008 39.3308 70.6689 39.3265C70.537 39.3222 70.4074 39.3617 70.3003 39.4388" stroke="#263238" stroke-width="0.2" stroke-linecap="round" stroke-linejoin="round"/>
<path d="M77.8142 42.4868C77.8142 42.4868 79.1952 42.9041 79.804 43.4182C80.4127 43.9323 81.3958 47.9699 81.684 49.8951C81.9723 51.8203 82.4218 53.4853 82.0368 53.7111C81.6518 53.937 75.6309 53.1497 75.6309 53.1497L75.4395 52.2204L79.363 51.403C79.363 51.403 77.1711 47.1009 77.1087 45.9221C77.0504 45.2904 77.138 44.6539 77.3647 44.0614" fill="white"/>
<path d="M77.8142 42.4868C77.8142 42.4868 79.1952 42.9041 79.804 43.4182C80.4127 43.9323 81.3958 47.9699 81.684 49.8951C81.9723 51.8203 82.4218 53.4853 82.0368 53.7111C81.6518 53.937 75.6309 53.1497 75.6309 53.1497L75.4395 52.2204L79.363 51.403C79.363 51.403 77.1711 47.1009 77.1087 45.9221C77.0504 45.2904 77.138 44.6539 77.3647 44.0614" stroke="#263238" stroke-width="0.2" stroke-linecap="round" stroke-linejoin="round"/>
<path d="M71.3954 50.0049L73.0947 54.178L70.208 55.2363L68.4097 51.1923L71.3954 50.0049Z" fill="#263238" stroke="#263238" stroke-width="0.2" stroke-linecap="round" stroke-linejoin="round"/>
<path d="M68.4097 51.1922L66.3555 49.6843L68.1839 53.9219L70.208 55.2362L68.4097 51.1922Z" fill="#263238" stroke="#263238" stroke-width="0.2" stroke-linecap="round" stroke-linejoin="round"/>
<path d="M75.4396 52.2204C75.4396 52.2204 73.1272 51.5751 72.8712 51.3858C72.6152 51.1965 70.4642 52.0591 70.3351 52.0591C70.206 52.0591 70.2383 52.2204 70.3674 52.2849C70.4964 52.3495 71.9075 51.9623 71.9075 51.9623C71.9075 51.9623 70.561 52.67 70.561 52.8227C70.5627 52.8723 70.5748 52.9209 70.5967 52.9654C70.6186 53.0099 70.6497 53.0492 70.6879 53.0808C70.6879 53.0808 70.7201 53.3691 70.8815 53.4336C71.0428 53.4982 72.6776 53.1755 72.6776 53.1755C72.6776 53.1755 71.387 53.6573 71.5548 53.7541C71.6321 53.8017 71.721 53.8269 71.8118 53.8269C71.9026 53.8269 71.9916 53.8017 72.0689 53.7541C72.2603 53.6573 73.4176 53.3046 73.4176 53.3046C73.4176 53.3046 74.278 53.5605 74.7642 53.4336C75.0565 53.3541 75.3438 53.2571 75.6246 53.1432L75.4396 52.2204Z" fill="white" stroke="#263238" stroke-width="0.2" stroke-linecap="round" stroke-linejoin="round"/>
<path d="M70.688 53.0873L72.2927 52.6377" stroke="#263238" stroke-width="0.2" stroke-linecap="round" stroke-linejoin="round"/>
<path d="M66.7083 50.9362C66.7083 50.9362 67.7989 51.7385 67.9989 51.9945C68.0548 52.0666 68.0951 52.1495 68.1173 52.238C68.1395 52.3265 68.1431 52.4186 68.128 52.5086L67.4203 52.2203C67.4203 52.2203 68.3194 53.0227 68.3517 53.1496C68.3839 53.2765 68.7045 53.825 68.3194 53.7605C67.9344 53.696 66.7792 53.0872 66.5534 52.7646C66.3275 52.4419 66.2651 50.9362 66.2651 50.9362C66.2651 50.9362 66.3555 50.6156 66.7083 50.9362Z" fill="white" stroke="#263238" stroke-width="0.2" stroke-linecap="round" stroke-linejoin="round"/>
<path d="M68.3452 53.3433L67.061 52.5732" stroke="#263238" stroke-width="0.2" stroke-linecap="round" stroke-linejoin="round"/>
<path d="M68.4738 53.6316C68.4738 53.6316 67.3186 53.1196 67.0928 52.926" stroke="#263238" stroke-width="0.2" stroke-linecap="round" stroke-linejoin="round"/>
<path d="M67.4134 52.2203L67.0283 51.9622" stroke="#263238" stroke-width="0.2" stroke-linecap="round" stroke-linejoin="round"/>
<path d="M75.1692 63.8145H74.3652V81.9996H75.1692V63.8145Z" fill="white" stroke="#263238" stroke-width="0.2" stroke-linecap="round" stroke-linejoin="round"/>
<path d="M111.869 63.8145H111.065V81.9996H111.869V63.8145Z" fill="white" stroke="#263238" stroke-width="0.2" stroke-linecap="round" stroke-linejoin="round"/>
<path d="M113 62.7412H73.6929V64.4298H113V62.7412Z" fill="white" stroke="#263238" stroke-width="0.2" stroke-linecap="round" stroke-linejoin="round"/>
<path d="M29.4705 63.8145H28.5757V81.9996H29.4705V63.8145Z" fill="white" stroke="#263238" stroke-width="0.2" stroke-linecap="round" stroke-linejoin="round"/>
<path d="M70.3177 63.8145H69.4229V81.9996H70.3177V63.8145Z" fill="white" stroke="#263238" stroke-width="0.2" stroke-linecap="round" stroke-linejoin="round"/>
<path d="M71.5784 62.7412H27.8276V64.4298H71.5784V62.7412Z" fill="white" stroke="#263238" stroke-width="0.2" stroke-linecap="round" stroke-linejoin="round"/>
<path d="M102.988 67.0022L105.045 80.1775L106.146 80.2464L106.406 67.3249L102.988 67.0022Z" fill="#707070" stroke="#263238" stroke-width="0.2" stroke-linecap="round" stroke-linejoin="round"/>
<path d="M105.045 80.1777V81.6448C105.045 81.7034 105.068 81.7597 105.107 81.8027C105.147 81.8457 105.202 81.8722 105.26 81.8771L106.067 81.9223C106.101 81.9241 106.134 81.9185 106.166 81.9058C106.197 81.8931 106.226 81.8737 106.249 81.8488C106.272 81.824 106.29 81.7944 106.3 81.7622C106.311 81.7299 106.314 81.6957 106.31 81.662L106.146 80.2466L105.045 80.1777Z" fill="white" stroke="#263238" stroke-width="0.2" stroke-linecap="round" stroke-linejoin="round"/>
<path d="M111.022 67.0347L108.74 80.1648L107.637 80.2079L107.6 67.2842L111.022 67.0347Z" fill="#707070" stroke="#263238" stroke-width="0.2" stroke-linecap="round" stroke-linejoin="round"/>
<path d="M108.74 80.1648L108.714 81.6297C108.713 81.6894 108.689 81.7465 108.647 81.789C108.605 81.8314 108.548 81.856 108.489 81.8577L107.68 81.8857C107.646 81.8866 107.612 81.8802 107.581 81.8668C107.55 81.8535 107.523 81.8335 107.5 81.8083C107.478 81.7831 107.461 81.7533 107.451 81.721C107.441 81.6886 107.438 81.6545 107.443 81.6211L107.637 80.2078L108.74 80.1648Z" fill="white" stroke="#263238" stroke-width="0.2" stroke-linecap="round" stroke-linejoin="round"/>
<path d="M102.339 54.27C102.339 54.27 98.8969 60.9384 98.8023 61.5062C98.7076 62.0741 99.2712 62.9152 100.256 62.8205C101.242 62.7259 103.808 62.6807 103.808 62.6807L103.855 61.788L100.897 61.4137L102.681 60.0048L102.339 54.27Z" fill="#263238" stroke="#263238" stroke-width="0.2" stroke-linecap="round" stroke-linejoin="round"/>
<path d="M100.897 61.4138L100.538 62.1172" stroke="#263238" stroke-width="0.2" stroke-linecap="round" stroke-linejoin="round"/>
<path d="M111.556 54.4143C111.556 54.4143 115.062 60.9428 115.157 61.5129C115.252 62.0829 114.688 62.9218 113.703 62.8272C112.718 62.7325 110.414 62.6873 110.414 62.6873L110.367 61.7796L111.967 61.4053L110.846 59.9791L111.556 54.4143Z" fill="#263238" stroke="#263238" stroke-width="0.2" stroke-linecap="round" stroke-linejoin="round"/>
<path d="M111.967 61.4138L113.421 62.1172" stroke="#263238" stroke-width="0.2" stroke-linecap="round" stroke-linejoin="round"/>
<path d="M105.613 52.5126L103.354 53.7086C102.225 54.3066 102.407 53.9711 102.341 54.2701C102.274 54.5691 102.721 64.9329 102.721 64.9329C102.721 64.9329 103.582 65.7719 105.845 65.9956C109.231 66.3268 110.691 65.2642 110.691 65.2642C110.691 65.2642 111.552 54.7799 111.552 54.4142C111.552 54.0485 110.153 53.3387 109.259 52.9084C108.364 52.4782 107.37 52.1147 105.613 52.5126Z" fill="#263238" stroke="#263238" stroke-width="0.2" stroke-linecap="round" stroke-linejoin="round"/>
<path d="M106.817 45.4315C106.817 45.4315 105.352 46.0768 104.881 47.1287C104.41 48.1805 105.174 50.6414 104.997 51.2845C104.821 51.9277 104.003 51.8696 104.003 51.8696C104.003 51.8696 104.354 53.8615 106.344 54.096C108.334 54.3305 109.213 54.0358 110.033 53.1581C110.852 52.2805 110.678 52.2805 110.678 52.2805C110.678 52.2805 110.328 52.2805 110.151 51.2845C109.975 50.2886 110.209 47.4793 109.332 46.251C108.454 45.0228 107.118 45.0701 106.817 45.4315Z" fill="#263238" stroke="#263238" stroke-width="0.2" stroke-linecap="round" stroke-linejoin="round"/>
<path d="M102.72 64.9329C102.72 64.9329 102.423 68.252 102.522 68.6843C102.621 69.1167 103.651 69.8137 105.748 69.8803C107.846 69.947 110.463 70.046 111.096 69.2823C111.728 68.5187 110.696 65.2641 110.696 65.2641C110.696 65.2641 105.112 65.7288 102.72 64.9329Z" fill="#707070" stroke="#263238" stroke-width="0.2" stroke-linecap="round" stroke-linejoin="round"/>
<path d="M106.922 52.4502C106.922 52.4502 106.972 52.1061 107.998 52.4008" stroke="#263238" stroke-width="0.2" stroke-linecap="round" stroke-linejoin="round"/>
<path d="M102.672 81.7997C102.641 81.7975 102.611 81.7893 102.584 81.7754C102.556 81.7615 102.532 81.7423 102.512 81.7189C102.492 81.6955 102.477 81.6683 102.467 81.639C102.458 81.6096 102.454 81.5787 102.457 81.548L103.139 68.9922L103.922 69.0546L102.919 81.5867C102.914 81.6476 102.886 81.7041 102.839 81.744C102.793 81.7838 102.733 81.8039 102.672 81.7997Z" fill="#263238" stroke="#263238" stroke-width="0.2" stroke-linecap="round" stroke-linejoin="round"/>
<path d="M111.115 81.7997C111.177 81.7947 111.234 81.7655 111.275 81.7183C111.315 81.6711 111.335 81.6099 111.33 81.548L110.648 68.9922L109.865 69.0546L110.865 81.5867C110.871 81.6478 110.9 81.7043 110.947 81.7441C110.993 81.7839 111.054 81.8039 111.115 81.7997Z" fill="#263238" stroke="#263238" stroke-width="0.2" stroke-linecap="round" stroke-linejoin="round"/>
<path d="M111.918 59.108C110.166 59.3608 108.398 59.4909 106.628 59.4973C104.972 59.479 103.319 59.3489 101.681 59.108C101.618 59.0981 101.555 59.1031 101.495 59.1224C101.435 59.1418 101.38 59.1751 101.336 59.2196C101.291 59.264 101.257 59.3184 101.238 59.3782C101.218 59.4381 101.213 59.5017 101.222 59.564C101.476 61.1515 102.197 65.7182 102.197 66.5916C102.197 67.6542 101.831 68.6523 101.831 69.1169C101.831 69.5816 102.031 69.9472 102.363 70.0785C102.517 70.1408 104.258 70.1451 106.611 70.1322C109.334 70.1451 111.077 70.1322 111.229 70.0785C111.56 69.9472 111.761 69.5816 111.761 69.1169C111.761 68.6523 111.395 67.6542 111.395 66.5916C111.395 65.7182 112.115 61.1494 112.371 59.564C112.381 59.5021 112.376 59.4387 112.357 59.379C112.338 59.3193 112.305 59.265 112.261 59.2205C112.216 59.1761 112.162 59.1427 112.103 59.1231C112.043 59.1036 111.98 59.0984 111.918 59.108ZM110.214 68.8373C110.096 68.8825 108.753 68.8868 106.654 68.876C104.841 68.8868 103.498 68.876 103.38 68.8373C103.245 68.7705 103.134 68.6644 103.061 68.533C102.988 68.4016 102.957 68.2512 102.971 68.1016C102.971 67.7467 103.251 66.9852 103.251 66.1657C103.251 65.9764 103.206 65.5548 103.137 65.0213L103.802 65.7419C103.893 65.8396 104.003 65.9175 104.125 65.9708C104.248 66.024 104.38 66.0516 104.514 66.0516H109.074C109.327 66.0518 109.57 65.953 109.751 65.7763L110.446 65.0987C110.382 65.5956 110.341 65.985 110.341 66.1743C110.341 66.9852 110.623 67.7467 110.623 68.1102C110.635 68.2584 110.603 68.407 110.53 68.5366C110.457 68.6663 110.347 68.771 110.214 68.8373ZM111.094 60.8116C110.982 61.5 110.754 62.9218 110.577 64.1436L109.915 64.5545C109.543 64.7803 109.117 64.8993 108.682 64.8987H104.967C104.545 64.8987 104.131 64.7858 103.767 64.5717L103.012 64.1286C102.838 62.9089 102.612 61.4957 102.5 60.8116C102.493 60.7639 102.497 60.7151 102.513 60.6693C102.528 60.6235 102.554 60.582 102.588 60.5481C102.623 60.5142 102.665 60.4888 102.711 60.474C102.756 60.4593 102.805 60.4556 102.853 60.4632C104.116 60.6473 105.39 60.7465 106.667 60.76C108.034 60.7562 109.4 60.657 110.754 60.4632C110.801 60.4573 110.848 60.4624 110.893 60.478C110.937 60.4936 110.977 60.5192 111.01 60.553C111.043 60.5867 111.068 60.6277 111.082 60.6725C111.097 60.7174 111.101 60.765 111.094 60.8116Z" fill="#263238" stroke="#263238" stroke-width="0.2" stroke-linecap="round" stroke-linejoin="round"/>
<path d="M85.8833 55.223V53.4312H88.4409V55.3564L85.8833 55.223Z" fill="white" stroke="#263238" stroke-width="0.2" stroke-linecap="round" stroke-linejoin="round"/>
<path d="M84.6228 51.1404C84.6228 51.1404 84.2227 51.0393 84.2227 51.6717C84.2227 52.3041 84.7475 52.7451 84.9626 52.6999C85.1777 52.6548 84.8637 51.4717 84.8293 51.2393C84.7948 51.007 84.6228 51.1404 84.6228 51.1404Z" fill="white" stroke="#263238" stroke-width="0.2" stroke-linecap="round" stroke-linejoin="round"/>
<path d="M89.6046 51.1404C89.6046 51.1404 90.0025 51.0393 90.0025 51.6717C90.0025 52.3041 89.4798 52.7451 89.2647 52.6999C89.0496 52.6548 89.3637 51.4717 89.3959 51.2393C89.4282 51.007 89.6046 51.1404 89.6046 51.1404Z" fill="white" stroke="#263238" stroke-width="0.2" stroke-linecap="round" stroke-linejoin="round"/>
<path d="M89.613 48.6387C89.613 48.6387 89.8626 48.5139 89.5829 47.9202C89.5083 47.7521 89.3965 47.603 89.2561 47.4842C89.1156 47.3653 88.9501 47.2798 88.772 47.234C88.772 47.234 88.9871 47.1092 88.9871 46.9845C88.9871 46.8597 88.7074 46.8296 87.8642 47.0791C87.636 47.1285 87.4295 47.2494 87.2747 47.4243C87.12 47.5992 87.0251 47.8189 87.0038 48.0514C86.988 48.0422 86.9714 48.0343 86.9543 48.0277C86.75 47.9288 85.9584 47.576 85.5798 47.7653C85.1496 47.9804 85.6422 47.9202 85.6422 47.9202C85.1459 48.0012 84.6995 48.269 84.3945 48.6688C83.9278 49.3141 84.2698 49.3872 84.3644 49.3872C84.4591 49.3872 84.5516 49.1054 84.5516 49.1054V49.6991C84.5516 49.6991 84.5623 49.7508 84.5817 49.8325C84.4505 50.7123 84.6828 51.7082 84.8118 52.3342C84.9775 53.1322 85.6422 53.8959 86.1412 54.0551C86.6403 54.2142 88.1654 54.0551 88.1654 54.0551C88.5457 53.6723 88.8701 53.2378 89.1291 52.7644C89.4061 52.179 89.5529 51.5406 89.5593 50.893C89.7292 50.5375 89.8292 50.1526 89.854 49.7594C89.925 48.9506 89.613 48.6387 89.613 48.6387Z" fill="#263238" stroke="#263238" stroke-width="0.2" stroke-linecap="round" stroke-linejoin="round"/>
<path d="M88.8065 52.0158C88.8065 52.0158 87.3975 51.2564 86.0101 51.8501C85.2078 52.1922 84.6162 53.044 84.6162 53.044C85.3146 52.8354 86.0385 52.724 86.7673 52.7127C87.6664 52.7328 88.5638 52.7989 89.4561 52.9106C89.2967 52.5748 89.0764 52.2714 88.8065 52.0158Z" fill="#263238" stroke="#263238" stroke-width="0.2" stroke-linecap="round" stroke-linejoin="round"/>
<path d="M81.5337 55.1692C81.5337 55.1692 77.8769 60.9427 77.7823 61.5063C77.6876 62.0698 78.2512 62.9152 79.2364 62.8206C80.2216 62.7259 83.8827 62.6807 83.8827 62.6807L83.93 61.7881L80.9745 61.4138L82.7577 60.0048L81.5337 55.1692Z" fill="#263238" stroke="#263238" stroke-width="0.2" stroke-linecap="round" stroke-linejoin="round"/>
<path d="M80.9748 61.4138L79.5186 62.1172" stroke="#263238" stroke-width="0.2" stroke-linecap="round" stroke-linejoin="round"/>
<path d="M92.7904 54.937C92.7904 54.937 96.4967 60.9428 96.5892 61.5064C96.6817 62.07 96.1202 62.9153 95.1351 62.8207C94.1499 62.7261 90.4887 62.6809 90.4887 62.6809L90.4414 61.7882L93.3991 61.4139L91.6159 60.0049L92.7904 54.937Z" fill="#263238" stroke="#263238" stroke-width="0.2" stroke-linecap="round" stroke-linejoin="round"/>
<path d="M93.3989 61.4138L94.8531 62.1172" stroke="#263238" stroke-width="0.2" stroke-linecap="round" stroke-linejoin="round"/>
<path d="M85.6852 52.5128L83.4266 53.7088C82.2973 54.3068 81.6004 54.8704 81.5337 55.1694C81.467 55.4684 82.7964 64.9331 82.7964 64.9331C82.7964 64.9331 83.6568 65.7721 85.9176 65.9958C89.3034 66.327 90.7639 65.2644 90.7639 65.2644C90.7639 65.2644 92.7903 55.3028 92.7903 54.9393C92.7903 54.5757 90.2326 53.3453 89.3378 52.9129C88.4429 52.4806 87.4448 52.1149 85.6852 52.5128Z" fill="#263238" stroke="#263238" stroke-width="0.2" stroke-linecap="round" stroke-linejoin="round"/>
<path d="M80.8687 67.6884L84.8202 80.3174L85.9172 80.184L84.2889 67.3894L80.8687 67.6884Z" fill="white" stroke="#263238" stroke-width="0.2" stroke-linecap="round" stroke-linejoin="round"/>
<path d="M84.8203 80.3174L85.0806 81.7608C85.0911 81.8195 85.1238 81.8718 85.1719 81.907C85.2199 81.9422 85.2796 81.9577 85.3387 81.9501L86.1411 81.8469C86.1748 81.8427 86.2072 81.8312 86.2359 81.8132C86.2647 81.7952 86.2892 81.7711 86.3077 81.7426C86.3261 81.714 86.3381 81.6818 86.3428 81.6482C86.3474 81.6146 86.3447 81.5803 86.3347 81.5479L85.9174 80.1841L84.8203 80.3174Z" fill="white" stroke="#263238" stroke-width="0.2" stroke-linecap="round" stroke-linejoin="round"/>
<path d="M93.0525 67.6884L89.1009 80.3174L88.0039 80.184L89.6323 67.3894L93.0525 67.6884Z" fill="white" stroke="#263238" stroke-width="0.2" stroke-linecap="round" stroke-linejoin="round"/>
<path d="M89.1009 80.3174L88.8342 81.7608C88.8237 81.8195 88.791 81.8718 88.7429 81.907C88.6949 81.9422 88.6352 81.9577 88.5761 81.9501L87.7737 81.8469C87.74 81.8427 87.7076 81.8312 87.6789 81.8132C87.6501 81.7952 87.6256 81.7711 87.6071 81.7426C87.5887 81.714 87.5767 81.6818 87.572 81.6482C87.5674 81.6146 87.5701 81.5803 87.5801 81.5479L87.9974 80.1841L89.1009 80.3174Z" fill="white" stroke="#263238" stroke-width="0.2" stroke-linecap="round" stroke-linejoin="round"/>
<path d="M86.182 66.1936C86.182 66.1936 82.5639 65.0643 81.8992 65.3978C81.2345 65.7312 80.5699 66.5916 80.8022 67.5488C81.0345 68.5061 83.0285 69.6741 83.4588 69.6999C83.889 69.7257 86.2164 69.6999 86.2164 69.6999L86.182 66.1936Z" fill="white" stroke="#263238" stroke-width="0.2" stroke-linecap="round" stroke-linejoin="round"/>
<path d="M87.961 66.1936C87.961 66.1936 91.5812 65.0643 92.2459 65.3978C92.9106 65.7312 93.5731 66.5916 93.3408 67.5488C93.1085 68.5061 91.1166 69.6741 90.6842 69.6999C90.2519 69.7257 87.9287 69.6999 87.9287 69.6999L87.961 66.1936Z" fill="white" stroke="#263238" stroke-width="0.2" stroke-linecap="round" stroke-linejoin="round"/>
<path d="M82.7963 64.9329C82.7963 64.9329 82.4973 68.252 82.5962 68.6843C82.6952 69.1167 83.7256 69.8137 85.8229 69.8803C87.9202 69.947 90.538 70.046 91.1704 69.2823C91.8028 68.5187 90.7703 65.2641 90.7703 65.2641C90.7703 65.2641 85.1775 65.7288 82.7963 64.9329Z" fill="white" stroke="#263238" stroke-width="0.2" stroke-linecap="round" stroke-linejoin="round"/>
<path d="M82.747 81.7997C82.6852 81.7947 82.6278 81.7655 82.5875 81.7183C82.5472 81.6711 82.5272 81.6099 82.5319 81.548L83.2138 68.9922L83.9968 69.0546L82.9966 81.5867C82.9911 81.6478 82.9619 81.7043 82.9153 81.7441C82.8686 81.7839 82.8082 81.8039 82.747 81.7997Z" fill="#263238" stroke="#263238" stroke-width="0.2" stroke-linecap="round" stroke-linejoin="round"/>
<path d="M91.2009 81.7997C91.2628 81.7947 91.3202 81.7655 91.3605 81.7183C91.4008 81.6711 91.4208 81.6099 91.4161 81.548L90.7342 68.9922L89.9512 69.0546L90.9514 81.5867C90.9569 81.6478 90.9861 81.7043 91.0327 81.7441C91.0794 81.7839 91.1398 81.8039 91.2009 81.7997Z" fill="#263238" stroke="#263238" stroke-width="0.2" stroke-linecap="round" stroke-linejoin="round"/>
<path d="M91.9835 59.108C90.2316 59.3608 88.4641 59.4909 86.694 59.4973C85.038 59.4788 83.3851 59.3488 81.7465 59.108C81.6843 59.0981 81.6206 59.1031 81.5607 59.1224C81.5007 59.1418 81.4462 59.1751 81.4015 59.2196C81.3569 59.264 81.3234 59.3184 81.3037 59.3782C81.284 59.4381 81.2788 59.5017 81.2884 59.564C81.5443 61.1515 82.2649 65.7182 82.2649 66.5916C82.2649 67.6542 81.8993 68.6523 81.8993 69.1169C81.8993 69.5816 82.0972 69.9472 82.4306 70.0785C82.5833 70.1408 84.3235 70.1451 86.6768 70.1322C89.4022 70.1451 91.1424 70.1322 91.2951 70.0785C91.6286 69.9472 91.8265 69.5816 91.8265 69.1169C91.8265 68.6523 91.4629 67.6542 91.4629 66.5916C91.4629 65.7182 92.1835 61.1494 92.4374 59.564C92.4473 59.5021 92.4424 59.4387 92.4231 59.379C92.4038 59.3193 92.3707 59.265 92.3265 59.2205C92.2822 59.1761 92.2281 59.1427 92.1685 59.1231C92.1089 59.1036 92.0455 59.0984 91.9835 59.108ZM90.2798 68.8373C90.1615 68.8825 88.8193 68.8868 86.7198 68.876C84.9065 68.8868 83.5642 68.876 83.4459 68.8373C83.3113 68.7705 83.2001 68.6644 83.1272 68.533C83.0542 68.4016 83.0228 68.2512 83.0372 68.1016C83.0372 67.7467 83.319 66.9852 83.319 66.1657C83.319 65.9764 83.2738 65.5548 83.2028 65.0213L83.8696 65.7419C83.9605 65.8399 84.0707 65.918 84.1932 65.9713C84.3158 66.0246 84.448 66.052 84.5816 66.0516H89.1419C89.3949 66.0511 89.6378 65.9524 89.8195 65.7763L90.5122 65.0987C90.4498 65.5956 90.4089 65.985 90.4089 66.1743C90.4089 66.9852 90.6885 67.7467 90.6885 68.1102C90.7011 68.2584 90.6689 68.407 90.596 68.5366C90.5231 68.6663 90.413 68.771 90.2798 68.8373ZM91.1596 60.8116C91.0478 61.5 90.8198 62.9218 90.6455 64.1436L89.9701 64.5545C89.5993 64.7799 89.1736 64.8989 88.7397 64.8987H85.0355C84.6127 64.8991 84.1975 64.7862 83.8331 64.5717L83.0802 64.1286C82.9038 62.9089 82.6779 61.4957 82.5661 60.8116C82.5591 60.7639 82.5634 60.7151 82.5787 60.6693C82.594 60.6235 82.6199 60.582 82.6543 60.5481C82.6886 60.5142 82.7304 60.4888 82.7764 60.474C82.8224 60.4593 82.8712 60.4556 82.9189 60.4632C84.1821 60.6473 85.4562 60.7465 86.7327 60.76C88.0967 60.7558 89.4588 60.6566 90.809 60.4632C90.8566 60.4555 90.9054 60.4591 90.9513 60.4739C90.9972 60.4886 91.0389 60.514 91.0731 60.548C91.1073 60.582 91.133 60.6236 91.148 60.6694C91.1631 60.7153 91.167 60.764 91.1596 60.8116Z" fill="#263238" stroke="#263238" stroke-width="0.2" stroke-linecap="round" stroke-linejoin="round"/>
<path d="M83.3232 59.1704L84.5988 63.9221L85.5926 63.7802L84.5278 59.3834L83.3232 59.1704Z" fill="#757575" stroke="#263238" stroke-width="0.2" stroke-linecap="round" stroke-linejoin="round"/>
<path d="M88.3589 63.6382L89.2817 59.3834L90.5594 59.2393L89.3527 63.9221L88.3589 63.6382Z" fill="#757575" stroke="#263238" stroke-width="0.2" stroke-linecap="round" stroke-linejoin="round"/>
<path d="M82.1273 66.9141L83.8202 70.4483V72.01L81.9746 68.1789L82.1273 66.9141Z" fill="#757575" stroke="#263238" stroke-width="0.2" stroke-linecap="round" stroke-linejoin="round"/>
<path d="M91.6243 66.9141L89.9336 70.4483V72.01L91.7771 68.1789L91.6243 66.9141Z" fill="#757575" stroke="#263238" stroke-width="0.2" stroke-linecap="round" stroke-linejoin="round"/>
<path d="M88.6736 62.7175C88.6736 62.7175 85.6234 62.5024 84.7006 62.7885C83.7777 63.0746 83.283 63.7801 83.354 64.9159C83.425 66.0517 82.7861 70.4484 82.8571 71.5842C82.9281 72.72 83.354 73.4298 85.1974 73.7848C87.0409 74.1397 88.9575 73.9999 90.0223 73.5697C91.0871 73.1394 91.5947 71.5175 90.943 69.8096C90.2912 68.1016 90.4547 65.4752 90.1707 64.1996C89.8868 62.924 89.1705 62.7885 88.6736 62.7175Z" fill="#263238" stroke="#263238" stroke-width="0.2" stroke-linecap="round" stroke-linejoin="round"/>
<path d="M90.3939 71.2702C90.3939 71.296 90.3444 71.9736 90.338 71.9994C89.8389 73.8945 87.1652 73.5933 85.6831 73.346C84.9453 73.2234 83.8396 72.8512 83.5535 72.0553C83.2416 71.1949 83.646 70.1194 83.8009 69.2482C83.8955 68.7082 83.9493 67.0541 84.5602 66.7787C85.1711 66.5034 88.8796 66.1054 89.441 67.2262C90.0691 68.4867 90.1702 69.8117 90.3939 71.2702Z" fill="#263238" stroke="#263238" stroke-width="0.2" stroke-linecap="round" stroke-linejoin="round"/>
<path d="M87.589 64.0317H86.1865V64.8169H87.589V64.0317Z" fill="#263238" stroke="#263238" stroke-width="0.2" stroke-linecap="round" stroke-linejoin="round"/>
<path d="M83.9988 69.3083H90.0583C90.0722 69.5287 90.0061 69.7466 89.8721 69.9221C89.7381 70.0976 89.5453 70.2188 89.3291 70.2634C88.4235 70.457 87.4254 70.4205 86.5069 70.4226C85.683 70.4205 83.9041 70.5431 83.9988 69.3083Z" fill="#263238" stroke="#263238" stroke-width="0.2" stroke-linecap="round" stroke-linejoin="round"/>
<path d="M57.1211 67.0798L59.1775 80.2573L60.2789 80.324L60.5392 67.4046L57.1211 67.0798Z" fill="#263238" stroke="#263238" stroke-width="0.2" stroke-linecap="round" stroke-linejoin="round"/>
<path d="M59.1772 80.2573V81.7222C59.177 81.7812 59.1991 81.8381 59.2389 81.8815C59.2788 81.925 59.3336 81.9518 59.3924 81.9567L60.2012 81.9997C60.235 82.0011 60.2687 81.9953 60.3 81.9825C60.3313 81.9696 60.3595 81.9502 60.3826 81.9255C60.4057 81.9007 60.4231 81.8713 60.4338 81.8392C60.4444 81.8071 60.448 81.773 60.4442 81.7394L60.2807 80.324L59.1772 80.2573Z" fill="white" stroke="#263238" stroke-width="0.2" stroke-linecap="round" stroke-linejoin="round"/>
<path d="M65.1574 67.1121L62.873 80.2422L61.7716 80.2852L61.7329 67.3637L65.1574 67.1121Z" fill="#263238" stroke="#263238" stroke-width="0.2" stroke-linecap="round" stroke-linejoin="round"/>
<path d="M62.873 80.2424L62.8472 81.7073C62.8463 81.7655 62.8238 81.8214 62.784 81.8639C62.7443 81.9065 62.6901 81.9327 62.632 81.9375L61.8232 81.9633C61.7894 81.9642 61.7557 81.9578 61.7246 81.9444C61.6935 81.9311 61.6656 81.9111 61.6429 81.886C61.6202 81.8609 61.6033 81.8311 61.5932 81.7988C61.5831 81.7664 61.5801 81.7323 61.5845 81.6987L61.7781 80.2855L62.873 80.2424Z" fill="white" stroke="#263238" stroke-width="0.2" stroke-linecap="round" stroke-linejoin="round"/>
<path d="M56.4735 54.3477C56.4735 54.3477 53.0318 61.016 52.935 61.5839C52.8382 62.1518 53.4061 62.9928 54.3913 62.8982C55.3765 62.8035 57.9405 62.7584 57.9405 62.7584L57.9879 61.8657L55.0323 61.4914L56.8155 60.0824L56.4735 54.3477Z" fill="white" stroke="#263238" stroke-width="0.2" stroke-linecap="round" stroke-linejoin="round"/>
<path d="M55.0326 61.4915L54.6733 62.1949" stroke="#263238" stroke-width="0.2" stroke-linecap="round" stroke-linejoin="round"/>
<path d="M65.7297 54.2036C65.7297 54.2036 69.1973 61.0225 69.2898 61.584C69.3823 62.1454 68.8208 62.9929 67.8356 62.8983C66.8504 62.8036 64.5488 62.7584 64.5488 62.7584L64.5015 61.8657L66.0997 61.4915L65.0909 60.0911L65.7297 54.2036Z" fill="white" stroke="#263238" stroke-width="0.2" stroke-linecap="round" stroke-linejoin="round"/>
<path d="M66.0996 61.4915L67.5537 62.1949" stroke="#263238" stroke-width="0.2" stroke-linecap="round" stroke-linejoin="round"/>
<path d="M59.7433 52.5924L57.4847 53.7863C56.3554 54.3843 56.5382 54.0487 56.4737 54.3477C56.4091 54.6467 56.8544 65.0063 56.8544 65.0063C56.8544 65.0063 57.7148 65.8473 59.9756 66.0689C63.3636 66.4002 64.8242 65.3375 64.8242 65.3375C64.8242 65.3375 65.6846 54.8532 65.6846 54.4875C65.6846 54.1218 64.2864 53.412 63.3894 52.9818C62.4924 52.5515 61.5029 52.1923 59.7433 52.5924Z" fill="white" stroke="#263238" stroke-width="0.2" stroke-linecap="round" stroke-linejoin="round"/>
<path d="M56.8544 65.0061C56.8544 65.0061 56.5554 68.3274 56.6544 68.7576C56.7533 69.1878 57.7837 69.8869 59.881 69.9536C61.9783 70.0203 64.5961 70.1192 65.2264 69.3556C65.8567 68.5919 64.8284 65.3374 64.8284 65.3374C64.8284 65.3374 59.2442 65.8063 56.8544 65.0061Z" fill="#263238" stroke="#263238" stroke-width="0.2" stroke-linecap="round" stroke-linejoin="round"/>
<path d="M61.3003 46.0897C61.3003 46.0897 60.2248 45.4444 59.089 46.6791C57.9532 47.9138 59.1385 50.3661 59.2847 50.9554C59.431 51.5448 57.3208 54.8962 57.3208 56.402C57.3208 57.9077 59.1492 59.4135 62.0403 59.1145C64.9313 58.8155 65.2841 57.2947 64.8904 55.477C64.4968 53.6594 64.0537 51.7406 64.0537 50.9598C64.0537 50.1789 64.742 48.4043 64.1031 46.6834C63.4643 44.9626 61.8918 45.4508 61.3003 46.0897Z" fill="#263238" stroke="#263238" stroke-width="0.2" stroke-linecap="round" stroke-linejoin="round"/>
<path d="M59.7299 51.25L61.0571 52.5278C61.0571 52.5278 59.6805 55.8211 59.532 56.7051C59.3836 57.5892 60.1774 58.426 61.2529 58.3271C62.3284 58.2281 63.0232 57.2945 62.9738 56.5094C62.9243 55.7243 62.137 52.4783 62.137 52.4783C62.8163 52.1236 63.3922 51.5988 63.8084 50.9553" stroke="#808080" stroke-width="0.2" stroke-linecap="round" stroke-linejoin="round"/>
<path d="M61.0576 52.5301C61.0576 52.5301 61.1071 52.1859 62.1332 52.4806" stroke="#263238" stroke-width="0.2" stroke-linecap="round" stroke-linejoin="round"/>
<path d="M56.8045 81.8771C56.743 81.8721 56.686 81.8432 56.6457 81.7965C56.6055 81.7498 56.5852 81.6891 56.5894 81.6276L57.2713 69.0696L58.0543 69.1341L57.054 81.6641C57.0491 81.7254 57.0201 81.7822 56.9733 81.8222C56.9265 81.8621 56.8658 81.8818 56.8045 81.8771Z" fill="#263238" stroke="#263238" stroke-width="0.2" stroke-linecap="round" stroke-linejoin="round"/>
<path d="M65.2481 81.8771C65.2787 81.8749 65.3085 81.8667 65.3358 81.853C65.3632 81.8392 65.3876 81.8202 65.4075 81.797C65.4275 81.7739 65.4427 81.7469 65.4523 81.7179C65.4619 81.6888 65.4656 81.6581 65.4632 81.6276L64.7835 69.0696L64.0005 69.1341L65.0007 81.6641C65.0057 81.725 65.0344 81.7815 65.0807 81.8214C65.127 81.8612 65.1872 81.8812 65.2481 81.8771Z" fill="#263238" stroke="#263238" stroke-width="0.2" stroke-linecap="round" stroke-linejoin="round"/>
<path d="M66.0498 59.1855C64.2986 59.4383 62.5318 59.5684 60.7625 59.5749C59.1064 59.5574 57.4534 59.4274 55.815 59.1855C55.7527 59.1759 55.6891 59.1812 55.6292 59.2009C55.5693 59.2205 55.515 59.2541 55.4705 59.2987C55.4261 59.3434 55.3928 59.3979 55.3734 59.4578C55.354 59.5178 55.3491 59.5815 55.359 59.6437C55.6128 61.229 56.3334 65.7958 56.3334 66.6713C56.3334 67.7339 55.9677 68.7298 55.9677 69.1945C55.9677 69.6591 56.1678 70.0248 56.499 70.1582C56.6517 70.2184 58.392 70.2227 60.7452 70.2098C63.4707 70.2227 65.2109 70.2098 65.3658 70.1582C65.697 70.0248 65.8971 69.6591 65.8971 69.1945C65.8971 68.7298 65.5314 67.7339 65.5314 66.6713C65.5314 65.7958 66.252 61.229 66.5058 59.6437C66.5162 59.5814 66.5116 59.5175 66.4924 59.4573C66.4732 59.3971 66.4399 59.3424 66.3953 59.2976C66.3508 59.2529 66.2962 59.2193 66.2361 59.1999C66.176 59.1804 66.1122 59.1754 66.0498 59.1855ZM64.3461 68.9148C64.2278 68.9622 62.8856 68.9643 60.7861 68.9557C58.9728 68.9557 57.6305 68.9557 57.5122 68.9148C57.3776 68.848 57.2664 68.7419 57.1935 68.6105C57.1205 68.4792 57.0891 68.3287 57.1035 68.1792C57.1035 67.8242 57.3853 67.0649 57.3853 66.2539C57.3853 66.0625 57.3401 65.6409 57.2713 65.1096L57.9359 65.828C58.0267 65.9263 58.1368 66.0047 58.2593 66.0584C58.3819 66.1121 58.5142 66.1398 58.6479 66.1399H63.2082C63.4597 66.1404 63.7015 66.0424 63.8815 65.8668L64.5742 65.1913C64.5118 65.6861 64.4709 66.0754 64.4709 66.2668C64.4709 67.0778 64.7527 67.8371 64.7527 68.1921C64.7646 68.3393 64.7322 68.4868 64.6598 68.6155C64.5874 68.7443 64.4782 68.8485 64.3461 68.9148ZM65.2259 60.8892C65.1141 61.5775 64.8882 62.9994 64.7118 64.2212L64.0385 64.632C63.6673 64.8586 63.2408 64.9784 62.806 64.9784H59.1018C58.6788 64.9781 58.2636 64.8645 57.8994 64.6492L57.1465 64.2061C56.9701 62.9886 56.7442 61.5754 56.6345 60.8892C56.627 60.8413 56.631 60.7924 56.6462 60.7463C56.6613 60.7003 56.6872 60.6586 56.7216 60.6245C56.7561 60.5905 56.7982 60.5651 56.8444 60.5506C56.8906 60.536 56.9396 60.5326 56.9873 60.5407C58.2497 60.7257 59.5232 60.8256 60.799 60.8397C62.1666 60.8341 63.5322 60.7342 64.8861 60.5407C64.9328 60.5349 64.9803 60.5399 65.0248 60.5555C65.0693 60.5711 65.1096 60.5968 65.1425 60.6305C65.1755 60.6643 65.2001 60.7052 65.2146 60.7501C65.2291 60.7949 65.2329 60.8425 65.2259 60.8892Z" fill="#263238" stroke="#263238" stroke-width="0.2" stroke-linecap="round" stroke-linejoin="round"/>
<path d="M40.0181 52.3946V50.6028H42.5735V52.528L40.0181 52.3946Z" fill="white" stroke="#263238" stroke-width="0.2" stroke-linecap="round" stroke-linejoin="round"/>
<path d="M38.7554 48.3118C38.7554 48.3118 38.3574 48.2107 38.3574 48.8431C38.3574 49.4755 38.8887 49.9036 39.0866 49.8713C39.2845 49.839 38.9877 48.643 38.9554 48.4107C38.9232 48.1784 38.7554 48.3118 38.7554 48.3118Z" fill="white" stroke="#263238" stroke-width="0.2" stroke-linecap="round" stroke-linejoin="round"/>
<path d="M43.7371 48.3118C43.7371 48.3118 44.1372 48.2107 44.1372 48.8431C44.1372 49.4755 43.6059 49.9036 43.4058 49.8713C43.2058 49.839 43.5048 48.643 43.5392 48.4107C43.5736 48.1784 43.7371 48.3118 43.7371 48.3118Z" fill="white" stroke="#263238" stroke-width="0.2" stroke-linecap="round" stroke-linejoin="round"/>
<path d="M40.5145 45.1562C40.5145 45.1562 39.3852 45.3219 38.9206 46.3178C38.4559 47.3137 38.7894 48.7098 38.955 49.5057C39.1206 50.3016 39.7853 51.0674 40.2822 51.2266C40.7791 51.3857 42.3085 51.2266 42.3085 51.2266C42.6881 50.8432 43.0125 50.4088 43.2722 49.9359C43.7368 49.1056 43.8035 47.5439 43.6035 46.6491C43.4034 45.7542 42.7065 44.8551 42.1751 44.7884C41.6438 44.7217 41.1469 45.2186 41.1469 45.2186C40.9497 45.1252 40.7262 45.1031 40.5145 45.1562Z" fill="#263238" stroke="#263238" stroke-width="0.2" stroke-linecap="round" stroke-linejoin="round"/>
<path d="M42.9393 52.0634C42.9393 52.0634 41.0033 51.7644 40.1429 51.8978C39.2825 52.0312 38.749 53.0916 38.749 53.0916C39.4475 52.8834 40.1713 52.7719 40.9001 52.7604C41.7992 52.7808 42.6967 52.8476 43.5889 52.9604C43.4293 52.6241 43.2091 52.32 42.9393 52.0634Z" fill="white" stroke="#263238" stroke-width="0.2" stroke-linecap="round" stroke-linejoin="round"/>
<path d="M35.6686 55.2168C35.6686 55.2168 32.0096 60.9924 31.9171 61.5646C31.8246 62.1368 32.3861 62.9736 33.3712 62.8789C34.3564 62.7843 38.0176 62.7391 38.0176 62.7391L38.0627 61.8464L35.1072 61.4721L36.8904 60.0589L35.6686 55.2168Z" fill="white" stroke="#263238" stroke-width="0.2" stroke-linecap="round" stroke-linejoin="round"/>
<path d="M35.107 61.4614L33.6528 62.1648" stroke="#263238" stroke-width="0.2" stroke-linecap="round" stroke-linejoin="round"/>
<path d="M46.9247 54.9846C46.9247 54.9846 50.6288 60.9926 50.7235 61.554C50.8181 62.1154 50.2545 62.963 49.2672 62.8683C48.2798 62.7737 44.623 62.7285 44.623 62.7285L44.5757 61.8358L47.5334 61.4615L45.748 60.059L46.9247 54.9846Z" fill="white" stroke="#263238" stroke-width="0.2" stroke-linecap="round" stroke-linejoin="round"/>
<path d="M47.5317 61.4614L48.988 62.1648" stroke="#263238" stroke-width="0.2" stroke-linecap="round" stroke-linejoin="round"/>
<path d="M39.8177 52.5603L37.5591 53.7563C36.4319 54.3543 35.7328 54.9179 35.6683 55.2169C35.6038 55.5159 36.9288 64.9806 36.9288 64.9806C36.9288 64.9806 37.7893 65.8195 40.05 66.0432C43.438 66.3745 44.8986 65.3119 44.8986 65.3119C44.8986 65.3119 46.9249 55.3502 46.9249 54.9867C46.9249 54.6232 44.3672 53.3906 43.4702 52.9604C42.5733 52.5302 41.5773 52.1623 39.8177 52.5603Z" fill="white" stroke="#263238" stroke-width="0.2" stroke-linecap="round" stroke-linejoin="round"/>
<path d="M35.0034 67.7363L38.9549 80.3652L40.0498 80.234L38.4236 67.4373L35.0034 67.7363Z" fill="#263238" stroke="#263238" stroke-width="0.2" stroke-linecap="round" stroke-linejoin="round"/>
<path d="M38.9551 80.3651L39.2132 81.8085C39.2242 81.8673 39.2574 81.9196 39.3057 81.9548C39.3541 81.99 39.4141 82.0054 39.4735 81.9978L40.2758 81.8945C40.3094 81.8901 40.3415 81.8784 40.37 81.8602C40.3985 81.8421 40.4228 81.8179 40.441 81.7895C40.4592 81.761 40.471 81.7289 40.4756 81.6954C40.4801 81.6619 40.4773 81.6278 40.4673 81.5955L40.05 80.2339L38.9551 80.3651Z" fill="white" stroke="#263238" stroke-width="0.2" stroke-linecap="round" stroke-linejoin="round"/>
<path d="M47.1856 67.7363L43.2341 80.3652L42.1392 80.234L43.7654 67.4373L47.1856 67.7363Z" fill="#263238" stroke="#263238" stroke-width="0.2" stroke-linecap="round" stroke-linejoin="round"/>
<path d="M43.2316 80.3651L42.9734 81.8085C42.9624 81.8673 42.9293 81.9196 42.8809 81.9548C42.8325 81.99 42.7725 82.0054 42.7132 81.9978L41.9108 81.8945C41.8773 81.8901 41.8452 81.8784 41.8166 81.8602C41.7881 81.8421 41.7639 81.8179 41.7457 81.7895C41.7274 81.761 41.7156 81.7289 41.7111 81.6954C41.7065 81.6619 41.7094 81.6278 41.7194 81.5955L42.1367 80.2339L43.2316 80.3651Z" fill="white" stroke="#263238" stroke-width="0.2" stroke-linecap="round" stroke-linejoin="round"/>
<path d="M40.3169 66.241C40.3169 66.241 36.6966 65.1138 36.032 65.4365C35.3673 65.7592 34.7047 66.6325 34.9371 67.5876C35.1694 68.5426 37.1613 69.7128 37.5936 69.7386C38.026 69.7645 40.3492 69.7386 40.3492 69.7386L40.3169 66.241Z" fill="#263238" stroke="#263238" stroke-width="0.2" stroke-linecap="round" stroke-linejoin="round"/>
<path d="M42.0955 66.2411C42.0955 66.2411 45.7136 65.114 46.3782 65.4452C47.0429 65.7765 47.7076 66.6412 47.4731 67.5963C47.2387 68.5514 45.2489 69.7216 44.8166 69.7474C44.3842 69.7732 42.061 69.7474 42.061 69.7474L42.0955 66.2411Z" fill="#263238" stroke="#263238" stroke-width="0.2" stroke-linecap="round" stroke-linejoin="round"/>
<path d="M36.9291 64.9807C36.9291 64.9807 36.6301 68.302 36.7291 68.7322C36.828 69.1624 37.8584 69.8615 39.9557 69.9282C42.053 69.9949 44.6708 70.0938 45.3011 69.3302C45.9314 68.5666 44.9031 65.312 44.9031 65.312C44.9031 65.312 39.3211 65.7766 36.9291 64.9807Z" fill="#263238" stroke="#263238" stroke-width="0.2" stroke-linecap="round" stroke-linejoin="round"/>
<path d="M36.8818 81.8471C36.8513 81.8449 36.8215 81.8367 36.7941 81.8229C36.7667 81.8092 36.7424 81.7902 36.7224 81.767C36.7024 81.7438 36.6872 81.7169 36.6776 81.6878C36.6681 81.6587 36.6644 81.6281 36.6667 81.5975L37.3464 69.0396L38.1294 69.1041L37.1313 81.6341C37.1264 81.6954 37.0974 81.7522 37.0506 81.7921C37.0038 81.8321 36.9431 81.8518 36.8818 81.8471Z" fill="#263238" stroke="#263238" stroke-width="0.2" stroke-linecap="round" stroke-linejoin="round"/>
<path d="M45.3223 81.8471C45.3529 81.8449 45.3827 81.8367 45.41 81.8229C45.4374 81.8092 45.4618 81.7902 45.4818 81.767C45.5018 81.7438 45.517 81.7169 45.5265 81.6878C45.5361 81.6587 45.5398 81.6281 45.5374 81.5975L44.8577 69.0396L44.0747 69.1041L45.075 81.6341C45.0799 81.695 45.1086 81.7515 45.1549 81.7913C45.2012 81.8312 45.2614 81.8512 45.3223 81.8471Z" fill="#263238" stroke="#263238" stroke-width="0.2" stroke-linecap="round" stroke-linejoin="round"/>
<path d="M46.1181 59.1554C44.3662 59.4083 42.5987 59.5384 40.8286 59.5447C39.1726 59.5264 37.5197 59.3964 35.8812 59.1554C35.8187 59.1454 35.7548 59.1504 35.6947 59.1699C35.6345 59.1894 35.5799 59.2229 35.5352 59.2676C35.4905 59.3123 35.457 59.367 35.4375 59.4271C35.418 59.4872 35.413 59.5511 35.423 59.6136C35.6768 61.1989 36.3974 65.7657 36.3974 66.6411C36.3974 67.7038 36.0317 68.6997 36.0317 69.1643C36.0317 69.629 36.2318 69.9947 36.563 70.128C36.7179 70.1883 38.4581 70.1926 40.8114 70.1797C43.5347 70.1926 45.2771 70.1797 45.4298 70.128C45.761 69.9947 45.9611 69.629 45.9611 69.1643C45.9611 68.6997 45.5954 67.7038 45.5954 66.6411C45.5954 65.7657 46.316 61.1968 46.5698 59.6114C46.5801 59.5496 46.5756 59.4862 46.5566 59.4265C46.5376 59.3668 46.5047 59.3124 46.4606 59.2679C46.4165 59.2234 46.3625 59.1899 46.3029 59.1704C46.2434 59.1508 46.18 59.1457 46.1181 59.1554ZM44.4145 68.8783C44.2962 68.9234 42.9539 68.9277 40.8523 68.9191C39.0389 68.9191 37.6988 68.9191 37.5805 68.8783C37.4455 68.8118 37.3339 68.7058 37.2605 68.5744C37.1872 68.443 37.1555 68.2924 37.1696 68.1426C37.1696 67.7877 37.4514 67.0283 37.4514 66.2174C37.4514 66.0259 37.4063 65.6043 37.3374 65.073L38.0021 65.7915C38.093 65.8895 38.2032 65.9678 38.3257 66.0215C38.4482 66.0751 38.5804 66.103 38.7141 66.1034H43.2744C43.528 66.1039 43.7716 66.0041 43.952 65.8259L44.6468 65.1504C44.5823 65.6452 44.5414 66.0345 44.5414 66.226C44.5414 67.0369 44.8232 67.7963 44.8232 68.1512C44.8357 68.2994 44.8035 68.4479 44.7306 68.5776C44.6577 68.7072 44.5476 68.812 44.4145 68.8783ZM45.2921 60.8526C45.1824 61.5409 44.9544 62.9628 44.778 64.1846L44.1047 64.5955C43.7333 64.8212 43.3068 64.9403 42.8721 64.9396H39.168C38.7459 64.9397 38.3315 64.8268 37.9677 64.6127L37.2084 64.176C37.0341 62.9564 36.8083 61.5452 36.6964 60.859C36.6894 60.8113 36.6937 60.7625 36.709 60.7167C36.7244 60.671 36.7502 60.6294 36.7846 60.5955C36.8189 60.5616 36.8608 60.5362 36.9067 60.5215C36.9527 60.5067 37.0015 60.503 37.0492 60.5106C38.3131 60.6949 39.588 60.7941 40.8652 60.8074C42.2328 60.8035 43.5984 60.7044 44.9522 60.5106C44.999 60.5047 45.0465 60.5098 45.091 60.5254C45.1355 60.541 45.1758 60.5667 45.2087 60.6004C45.2416 60.6342 45.2663 60.6751 45.2808 60.7199C45.2952 60.7648 45.2991 60.8124 45.2921 60.859V60.8526Z" fill="#263238" stroke="#263238" stroke-width="0.2" stroke-linecap="round" stroke-linejoin="round"/>
<path d="M20 81.9998H111" stroke="#263238" stroke-width="0.2" stroke-linecap="round" stroke-linejoin="round"/>
</g>
<defs>
<clipPath id="clip0_404_7402">
<rect width="131.498" height="100" fill="white" transform="translate(0.250977)"/>
</clipPath>
</defs>
</svg>
