<svg width="91" height="183" viewBox="0 0 91 183" fill="none" xmlns="http://www.w3.org/2000/svg">
<mask id="path-1-outside-1_407_3210" maskUnits="userSpaceOnUse" x="-5" y="-5" width="101" height="193" fill="black">
<rect fill="white" x="-5" y="-5" width="101" height="193"/>
<path d="M90.6122 0.45454V183H41.054V46.0909H39.9844L0.0525575 69.9787V27.9077L44.9759 0.45454H90.6122Z"/>
</mask>
<path d="M90.6122 0.45454H95.6122V-4.54546H90.6122V0.45454ZM90.6122 183V188H95.6122V183H90.6122ZM41.054 183H36.054V188H41.054V183ZM41.054 46.0909H46.054V41.0909H41.054V46.0909ZM39.9844 46.0909V41.0909H38.603L37.4175 41.8001L39.9844 46.0909ZM0.0525575 69.9787H-4.94744V78.7961L2.6194 74.2695L0.0525575 69.9787ZM0.0525575 27.9077L-2.55469 23.6413L-4.94744 25.1035V27.9077H0.0525575ZM44.9759 0.45454V-4.54546H43.569L42.3686 -3.81187L44.9759 0.45454ZM85.6122 0.45454V183H95.6122V0.45454H85.6122ZM90.6122 178H41.054V188H90.6122V178ZM46.054 183V46.0909H36.054V183H46.054ZM41.054 41.0909H39.9844V51.0909H41.054V41.0909ZM37.4175 41.8001L-2.51429 65.6879L2.6194 74.2695L42.5512 50.3817L37.4175 41.8001ZM5.05256 69.9787V27.9077H-4.94744V69.9787H5.05256ZM2.65981 32.1741L47.5831 4.72095L42.3686 -3.81187L-2.55469 23.6413L2.65981 32.1741ZM44.9759 5.45454H90.6122V-4.54546H44.9759V5.45454Z" fill="#0173B1" fill-opacity="0.07" mask="url(#path-1-outside-1_407_3210)"/>
</svg>
